<svg xmlns="http://www.w3.org/2000/svg" viewBox="0 0 200 260" width="400" height="520">
  <rect width="100%" height="100%" fill="#1a1a2e"/>
  <rect x="0" y="0" width="10" height="10" fill="#b3675a"/>
  <rect x="10" y="0" width="10" height="10" fill="#c68579"/>
  <rect x="20" y="0" width="10" height="10" fill="#c7c9b8"/>
  <rect x="30" y="0" width="10" height="10" fill="#ecccb3"/>
  <rect x="40" y="0" width="10" height="10" fill="#8baeb2"/>
  <rect x="50" y="0" width="10" height="10" fill="#2c2d2a"/>
  <rect x="60" y="0" width="10" height="10" fill="#96312c"/>
  <rect x="70" y="0" width="10" height="10" fill="#942f2a"/>
  <rect x="80" y="0" width="10" height="10" fill="#a3493b"/>
  <rect x="90" y="0" width="10" height="10" fill="#b26452"/>
  <rect x="100" y="0" width="10" height="10" fill="#525246"/>
  <rect x="110" y="0" width="10" height="10" fill="#b3594d"/>
  <rect x="120" y="0" width="10" height="10" fill="#47473a"/>
  <rect x="130" y="0" width="10" height="10" fill="#555346"/>
  <rect x="140" y="0" width="10" height="10" fill="#49463a"/>
  <rect x="150" y="0" width="10" height="10" fill="#b95346"/>
  <rect x="160" y="0" width="10" height="10" fill="#b95547"/>
  <rect x="170" y="0" width="10" height="10" fill="#ba5a4a"/>
  <rect x="180" y="0" width="10" height="10" fill="#c46553"/>
  <rect x="190" y="0" width="10" height="10" fill="#585649"/>
  <rect x="0" y="10" width="10" height="10" fill="#b36558"/>
  <rect x="10" y="10" width="10" height="10" fill="#c58679"/>
  <rect x="20" y="10" width="10" height="10" fill="#b1b6a7"/>
  <rect x="30" y="10" width="10" height="10" fill="#d5a994"/>
  <rect x="40" y="10" width="10" height="10" fill="#8cb1b2"/>
  <rect x="50" y="10" width="10" height="10" fill="#963a33"/>
  <rect x="60" y="10" width="10" height="10" fill="#932d28"/>
  <rect x="70" y="10" width="10" height="10" fill="#161510"/>
  <rect x="80" y="10" width="10" height="10" fill="#94332a"/>
  <rect x="90" y="10" width="10" height="10" fill="#ab5747"/>
  <rect x="100" y="10" width="10" height="10" fill="#aa5446"/>
  <rect x="110" y="10" width="10" height="10" fill="#ac5247"/>
  <rect x="120" y="10" width="10" height="10" fill="#393a2f"/>
  <rect x="130" y="10" width="10" height="10" fill="#37372f"/>
  <rect x="140" y="10" width="10" height="10" fill="#34352d"/>
  <rect x="150" y="10" width="10" height="10" fill="#b1483c"/>
  <rect x="160" y="10" width="10" height="10" fill="#b24f45"/>
  <rect x="170" y="10" width="10" height="10" fill="#b45246"/>
  <rect x="180" y="10" width="10" height="10" fill="#c36655"/>
  <rect x="190" y="10" width="10" height="10" fill="#5b5b4e"/>
  <rect x="0" y="20" width="10" height="10" fill="#b4675a"/>
  <rect x="10" y="20" width="10" height="10" fill="#c58678"/>
  <rect x="20" y="20" width="10" height="10" fill="#939789"/>
  <rect x="30" y="20" width="10" height="10" fill="#a65750"/>
  <rect x="40" y="20" width="10" height="10" fill="#95352f"/>
  <rect x="50" y="20" width="10" height="10" fill="#93322b"/>
  <rect x="60" y="20" width="10" height="10" fill="#912a25"/>
  <rect x="70" y="20" width="10" height="10" fill="#12110c"/>
  <rect x="80" y="20" width="10" height="10" fill="#912a25"/>
  <rect x="90" y="20" width="10" height="10" fill="#95352c"/>
  <rect x="100" y="20" width="10" height="10" fill="#32312a"/>
  <rect x="110" y="20" width="10" height="10" fill="#aa4c43"/>
  <rect x="120" y="20" width="10" height="10" fill="#35362e"/>
  <rect x="130" y="20" width="10" height="10" fill="#34352f"/>
  <rect x="140" y="20" width="10" height="10" fill="#2d2e29"/>
  <rect x="150" y="20" width="10" height="10" fill="#ab4339"/>
  <rect x="160" y="20" width="10" height="10" fill="#ab433b"/>
  <rect x="170" y="20" width="10" height="10" fill="#424237"/>
  <rect x="180" y="20" width="10" height="10" fill="#c26455"/>
  <rect x="190" y="20" width="10" height="10" fill="#c46a5a"/>
  <rect x="0" y="30" width="10" height="10" fill="#b16659"/>
  <rect x="10" y="30" width="10" height="10" fill="#55564c"/>
  <rect x="20" y="30" width="10" height="10" fill="#91322c"/>
  <rect x="30" y="30" width="10" height="10" fill="#8f2e2a"/>
  <rect x="40" y="30" width="10" height="10" fill="#151513"/>
  <rect x="50" y="30" width="10" height="10" fill="#8b211d"/>
  <rect x="60" y="30" width="10" height="10" fill="#8b211c"/>
  <rect x="80" y="30" width="10" height="10" fill="#8b201d"/>
  <rect x="90" y="30" width="10" height="10" fill="#8d2a26"/>
  <rect x="100" y="30" width="10" height="10" fill="#161712"/>
  <rect x="110" y="30" width="10" height="10" fill="#98322c"/>
  <rect x="120" y="30" width="10" height="10" fill="#2b2c27"/>
  <rect x="130" y="30" width="10" height="10" fill="#2c2e29"/>
  <rect x="140" y="30" width="10" height="10" fill="#262824"/>
  <rect x="150" y="30" width="10" height="10" fill="#262722"/>
  <rect x="160" y="30" width="10" height="10" fill="#a83c36"/>
  <rect x="170" y="30" width="10" height="10" fill="#33332b"/>
  <rect x="180" y="30" width="10" height="10" fill="#b45146"/>
  <rect x="190" y="30" width="10" height="10" fill="#b75248"/>
  <rect x="0" y="40" width="10" height="10" fill="#92322d"/>
  <rect x="10" y="40" width="10" height="10" fill="#171813"/>
  <rect x="20" y="40" width="10" height="10" fill="#8d2b26"/>
  <rect x="30" y="40" width="10" height="10" fill="#13130e"/>
  <rect x="40" y="40" width="10" height="10" fill="#131410"/>
  <rect x="80" y="40" width="10" height="10" fill="#a890ab"/>
  <rect x="90" y="40" width="10" height="10" fill="#11110f"/>
  <rect x="100" y="40" width="10" height="10" fill="#ad8faf"/>
  <rect x="110" y="40" width="10" height="10" fill="#1b1b17"/>
  <rect x="120" y="40" width="10" height="10" fill="#292925"/>
  <rect x="130" y="40" width="10" height="10" fill="#2a2b25"/>
  <rect x="140" y="40" width="10" height="10" fill="#292924"/>
  <rect x="150" y="40" width="10" height="10" fill="#2a2a22"/>
  <rect x="160" y="40" width="10" height="10" fill="#2c2c22"/>
  <rect x="170" y="40" width="10" height="10" fill="#313127"/>
  <rect x="180" y="40" width="10" height="10" fill="#303026"/>
  <rect x="190" y="40" width="10" height="10" fill="#b24e45"/>
  <rect x="0" y="50" width="10" height="10" fill="#8a2624"/>
  <rect x="10" y="50" width="10" height="10" fill="#12120e"/>
  <rect x="30" y="50" width="10" height="10" fill="#0e0f09"/>
  <rect x="40" y="50" width="10" height="10" fill="#100f0a"/>
  <rect x="50" y="50" width="10" height="10" fill="#10100c"/>
  <rect x="60" y="50" width="10" height="10" fill="#100f0c"/>
  <rect x="70" y="50" width="10" height="10" fill="#927695"/>
  <rect x="80" y="50" width="10" height="10" fill="#a687ae"/>
  <rect x="90" y="50" width="10" height="10" fill="#ac8bb2"/>
  <rect x="100" y="50" width="10" height="10" fill="#b18fb6"/>
  <rect x="110" y="50" width="10" height="10" fill="#b292b1"/>
  <rect x="120" y="50" width="10" height="10" fill="#b090b1"/>
  <rect x="130" y="50" width="10" height="10" fill="#b18fb3"/>
  <rect x="140" y="50" width="10" height="10" fill="#b694b0"/>
  <rect x="150" y="50" width="10" height="10" fill="#2e2e25"/>
  <rect x="160" y="50" width="10" height="10" fill="#313128"/>
  <rect x="170" y="50" width="10" height="10" fill="#323229"/>
  <rect x="180" y="50" width="10" height="10" fill="#333329"/>
  <rect x="190" y="50" width="10" height="10" fill="#33342b"/>
  <rect x="0" y="60" width="10" height="10" fill="#851c1a"/>
  <rect x="10" y="60" width="10" height="10" fill="#11100b"/>
  <rect x="20" y="60" width="10" height="10" fill="#0f0f0a"/>
  <rect x="50" y="60" width="10" height="10" fill="#917495"/>
  <rect x="60" y="60" width="10" height="10" fill="#907598"/>
  <rect x="70" y="60" width="10" height="10" fill="#a484ae"/>
  <rect x="80" y="60" width="10" height="10" fill="#a986b4"/>
  <rect x="90" y="60" width="10" height="10" fill="#ab87b6"/>
  <rect x="100" y="60" width="10" height="10" fill="#b28fb6"/>
  <rect x="110" y="60" width="10" height="10" fill="#c7a5ca"/>
  <rect x="120" y="60" width="10" height="10" fill="#c7a4c9"/>
  <rect x="130" y="60" width="10" height="10" fill="#c7a6c6"/>
  <rect x="140" y="60" width="10" height="10" fill="#b488ac"/>
  <rect x="150" y="60" width="10" height="10" fill="#d3968e"/>
  <rect x="160" y="60" width="10" height="10" fill="#2d2d27"/>
  <rect x="170" y="60" width="10" height="10" fill="#323229"/>
  <rect x="180" y="60" width="10" height="10" fill="#33342b"/>
  <rect x="190" y="60" width="10" height="10" fill="#35352c"/>
  <rect x="0" y="70" width="10" height="10" fill="#731814"/>
  <rect x="40" y="70" width="10" height="10" fill="#8a7293"/>
  <rect x="50" y="70" width="10" height="10" fill="#8c7396"/>
  <rect x="60" y="70" width="10" height="10" fill="#8a6d95"/>
  <rect x="70" y="70" width="10" height="10" fill="#a887af"/>
  <rect x="80" y="70" width="10" height="10" fill="#aa87b4"/>
  <rect x="90" y="70" width="10" height="10" fill="#ac88b6"/>
  <rect x="100" y="70" width="10" height="10" fill="#af8ab2"/>
  <rect x="110" y="70" width="10" height="10" fill="#b38fb8"/>
  <rect x="120" y="70" width="10" height="10" fill="#b490b4"/>
  <rect x="130" y="70" width="10" height="10" fill="#c8a5c9"/>
  <rect x="140" y="70" width="10" height="10" fill="#af8ab0"/>
  <rect x="150" y="70" width="10" height="10" fill="#b1a6a5"/>
  <rect x="160" y="70" width="10" height="10" fill="#171713"/>
  <rect x="170" y="70" width="10" height="10" fill="#2e2f28"/>
  <rect x="180" y="70" width="10" height="10" fill="#333329"/>
  <rect x="190" y="70" width="10" height="10" fill="#343429"/>
  <rect x="0" y="80" width="10" height="10" fill="#10110c"/>
  <rect x="40" y="80" width="10" height="10" fill="#877292"/>
  <rect x="50" y="80" width="10" height="10" fill="#866d91"/>
  <rect x="60" y="80" width="10" height="10" fill="#886e92"/>
  <rect x="70" y="80" width="10" height="10" fill="#8c6e94"/>
  <rect x="80" y="80" width="10" height="10" fill="#aa87b2"/>
  <rect x="90" y="80" width="10" height="10" fill="#ac87b5"/>
  <rect x="100" y="80" width="10" height="10" fill="#ae87b5"/>
  <rect x="110" y="80" width="10" height="10" fill="#ac87b1"/>
  <rect x="120" y="80" width="10" height="10" fill="#b18bb5"/>
  <rect x="130" y="80" width="10" height="10" fill="#b690b7"/>
  <rect x="140" y="80" width="10" height="10" fill="#b391b4"/>
  <rect x="150" y="80" width="10" height="10" fill="#aea3a5"/>
  <rect x="160" y="80" width="10" height="10" fill="#b0a9a8"/>
  <rect x="170" y="80" width="10" height="10" fill="#313128"/>
  <rect x="180" y="80" width="10" height="10" fill="#333329"/>
  <rect x="190" y="80" width="10" height="10" fill="#353529"/>
  <rect x="0" y="90" width="10" height="10" fill="#11120d"/>
  <rect x="40" y="90" width="10" height="10" fill="#857090"/>
  <rect x="50" y="90" width="10" height="10" fill="#7c6287"/>
  <rect x="60" y="90" width="10" height="10" fill="#8b6f92"/>
  <rect x="80" y="90" width="10" height="10" fill="#926c94"/>
  <rect x="90" y="90" width="10" height="10" fill="#af84ad"/>
  <rect x="100" y="90" width="10" height="10" fill="#b087af"/>
  <rect x="110" y="90" width="10" height="10" fill="#12100e"/>
  <rect x="120" y="90" width="10" height="10" fill="#b187b3"/>
  <rect x="130" y="90" width="10" height="10" fill="#b38bb3"/>
  <rect x="140" y="90" width="10" height="10" fill="#b18eb0"/>
  <rect x="150" y="90" width="10" height="10" fill="#afa4a5"/>
  <rect x="160" y="90" width="10" height="10" fill="#b4ada4"/>
  <rect x="170" y="90" width="10" height="10" fill="#34342b"/>
  <rect x="180" y="90" width="10" height="10" fill="#34352b"/>
  <rect x="190" y="90" width="10" height="10" fill="#33342c"/>
  <rect x="0" y="100" width="10" height="10" fill="#12130e"/>
  <rect x="40" y="100" width="10" height="10" fill="#17243a"/>
  <rect x="50" y="100" width="10" height="10" fill="#7c6286"/>
  <rect x="60" y="100" width="10" height="10" fill="#8c6c90"/>
  <rect x="70" y="100" width="10" height="10" fill="#b54d26"/>
  <rect x="80" y="100" width="10" height="10" fill="#c95125"/>
  <rect x="90" y="100" width="10" height="10" fill="#e8592a"/>
  <rect x="100" y="100" width="10" height="10" fill="#f06632"/>
  <rect x="110" y="100" width="10" height="10" fill="#f16b38"/>
  <rect x="120" y="100" width="10" height="10" fill="#a97ba6"/>
  <rect x="130" y="100" width="10" height="10" fill="#b287b2"/>
  <rect x="140" y="100" width="10" height="10" fill="#ae88ac"/>
  <rect x="150" y="100" width="10" height="10" fill="#181914"/>
  <rect x="160" y="100" width="10" height="10" fill="#292a25"/>
  <rect x="170" y="100" width="10" height="10" fill="#2c2d26"/>
  <rect x="180" y="100" width="10" height="10" fill="#303028"/>
  <rect x="190" y="100" width="10" height="10" fill="#c84e44"/>
  <rect x="0" y="110" width="10" height="10" fill="#11120d"/>
  <rect x="10" y="110" width="10" height="10" fill="#0e0f0a"/>
  <rect x="50" y="110" width="10" height="10" fill="#6d5475"/>
  <rect x="60" y="110" width="10" height="10" fill="#755373"/>
  <rect x="70" y="110" width="10" height="10" fill="#b25027"/>
  <rect x="80" y="110" width="10" height="10" fill="#cd5828"/>
  <rect x="90" y="110" width="10" height="10" fill="#f26831"/>
  <rect x="100" y="110" width="10" height="10" fill="#f36c35"/>
  <rect x="110" y="110" width="10" height="10" fill="#f37544"/>
  <rect x="120" y="110" width="10" height="10" fill="#986990"/>
  <rect x="130" y="110" width="10" height="10" fill="#b188af"/>
  <rect x="140" y="110" width="10" height="10" fill="#141410"/>
  <rect x="150" y="110" width="10" height="10" fill="#151611"/>
  <rect x="160" y="110" width="10" height="10" fill="#171711"/>
  <rect x="170" y="110" width="10" height="10" fill="#2c2d27"/>
  <rect x="180" y="110" width="10" height="10" fill="#b9453a"/>
  <rect x="190" y="110" width="10" height="10" fill="#c94f44"/>
  <rect x="0" y="120" width="10" height="10" fill="#a9a597"/>
  <rect x="10" y="120" width="10" height="10" fill="#8b8777"/>
  <rect x="20" y="120" width="10" height="10" fill="#7c7568"/>
  <rect x="30" y="120" width="10" height="10" fill="#766e63"/>
  <rect x="40" y="120" width="10" height="10" fill="#6b635a"/>
  <rect x="50" y="120" width="10" height="10" fill="#645a56"/>
  <rect x="60" y="120" width="10" height="10" fill="#6c4d6e"/>
  <rect x="70" y="120" width="10" height="10" fill="#ad5029"/>
  <rect x="80" y="120" width="10" height="10" fill="#c9592a"/>
  <rect x="90" y="120" width="10" height="10" fill="#ee7038"/>
  <rect x="100" y="120" width="10" height="10" fill="#f27a45"/>
  <rect x="110" y="120" width="10" height="10" fill="#d6633b"/>
  <rect x="120" y="120" width="10" height="10" fill="#976a94"/>
  <rect x="130" y="120" width="10" height="10" fill="#af8bad"/>
  <rect x="140" y="120" width="10" height="10" fill="#aba596"/>
  <rect x="150" y="120" width="10" height="10" fill="#b0ab99"/>
  <rect x="160" y="120" width="10" height="10" fill="#b5ae9a"/>
  <rect x="170" y="120" width="10" height="10" fill="#bcb6a1"/>
  <rect x="180" y="120" width="10" height="10" fill="#c9c3ad"/>
  <rect x="190" y="120" width="10" height="10" fill="#cecab4"/>
  <rect x="0" y="130" width="10" height="10" fill="#8b8776"/>
  <rect x="10" y="130" width="10" height="10" fill="#7b7569"/>
  <rect x="20" y="130" width="10" height="10" fill="#787166"/>
  <rect x="30" y="130" width="10" height="10" fill="#6e665c"/>
  <rect x="40" y="130" width="10" height="10" fill="#6b625a"/>
  <rect x="50" y="130" width="10" height="10" fill="#635b57"/>
  <rect x="60" y="130" width="10" height="10" fill="#6e5075"/>
  <rect x="70" y="130" width="10" height="10" fill="#745071"/>
  <rect x="80" y="130" width="10" height="10" fill="#914731"/>
  <rect x="90" y="130" width="10" height="10" fill="#b25335"/>
  <rect x="100" y="130" width="10" height="10" fill="#b65134"/>
  <rect x="110" y="130" width="10" height="10" fill="#af85ad"/>
  <rect x="120" y="130" width="10" height="10" fill="#956a90"/>
  <rect x="130" y="130" width="10" height="10" fill="#a29a8e"/>
  <rect x="140" y="130" width="10" height="10" fill="#a9a595"/>
  <rect x="150" y="130" width="10" height="10" fill="#ada997"/>
  <rect x="160" y="130" width="10" height="10" fill="#b3ae9b"/>
  <rect x="170" y="130" width="10" height="10" fill="#bab4a1"/>
  <rect x="180" y="130" width="10" height="10" fill="#bdb7a3"/>
  <rect x="190" y="130" width="10" height="10" fill="#cccab3"/>
  <rect x="0" y="140" width="10" height="10" fill="#7d776b"/>
  <rect x="10" y="140" width="10" height="10" fill="#777165"/>
  <rect x="20" y="140" width="10" height="10" fill="#6c685c"/>
  <rect x="30" y="140" width="10" height="10" fill="#696459"/>
  <rect x="40" y="140" width="10" height="10" fill="#8a6f92"/>
  <rect x="50" y="140" width="10" height="10" fill="#a986b2"/>
  <rect x="60" y="140" width="10" height="10" fill="#8e6896"/>
  <rect x="70" y="140" width="10" height="10" fill="#7a5584"/>
  <rect x="80" y="140" width="10" height="10" fill="#8f6b92"/>
  <rect x="90" y="140" width="10" height="10" fill="#b18cae"/>
  <rect x="100" y="140" width="10" height="10" fill="#b287b0"/>
  <rect x="110" y="140" width="10" height="10" fill="#a678a8"/>
  <rect x="120" y="140" width="10" height="10" fill="#794a74"/>
  <rect x="130" y="140" width="10" height="10" fill="#794b72"/>
  <rect x="140" y="140" width="10" height="10" fill="#946a8f"/>
  <rect x="150" y="140" width="10" height="10" fill="#956d8f"/>
  <rect x="160" y="140" width="10" height="10" fill="#a9a595"/>
  <rect x="170" y="140" width="10" height="10" fill="#b0ac9a"/>
  <rect x="180" y="140" width="10" height="10" fill="#bbb6a3"/>
  <rect x="190" y="140" width="10" height="10" fill="#c9c7b0"/>
  <rect x="0" y="150" width="10" height="10" fill="#7a7568"/>
  <rect x="10" y="150" width="10" height="10" fill="#767265"/>
  <rect x="20" y="150" width="10" height="10" fill="#767367"/>
  <rect x="30" y="150" width="10" height="10" fill="#676258"/>
  <rect x="40" y="150" width="10" height="10" fill="#8d6e96"/>
  <rect x="50" y="150" width="10" height="10" fill="#af8ab3"/>
  <rect x="60" y="150" width="10" height="10" fill="#b087b5"/>
  <rect x="70" y="150" width="10" height="10" fill="#906796"/>
  <rect x="80" y="150" width="10" height="10" fill="#ac85b5"/>
  <rect x="90" y="150" width="10" height="10" fill="#926c96"/>
  <rect x="100" y="150" width="10" height="10" fill="#b086b5"/>
  <rect x="110" y="150" width="10" height="10" fill="#754d71"/>
  <rect x="120" y="150" width="10" height="10" fill="#714a70"/>
  <rect x="130" y="150" width="10" height="10" fill="#724975"/>
  <rect x="140" y="150" width="10" height="10" fill="#774e79"/>
  <rect x="150" y="150" width="10" height="10" fill="#916993"/>
  <rect x="160" y="150" width="10" height="10" fill="#b18faf"/>
  <rect x="170" y="150" width="10" height="10" fill="#aaa694"/>
  <rect x="180" y="150" width="10" height="10" fill="#b1ad99"/>
  <rect x="190" y="150" width="10" height="10" fill="#c7c5ae"/>
  <rect x="0" y="160" width="10" height="10" fill="#848473"/>
  <rect x="10" y="160" width="10" height="10" fill="#747668"/>
  <rect x="20" y="160" width="10" height="10" fill="#646557"/>
  <rect x="30" y="160" width="10" height="10" fill="#8a6d91"/>
  <rect x="40" y="160" width="10" height="10" fill="#aa89b1"/>
  <rect x="50" y="160" width="10" height="10" fill="#b08ab6"/>
  <rect x="60" y="160" width="10" height="10" fill="#b089b5"/>
  <rect x="70" y="160" width="10" height="10" fill="#714a74"/>
  <rect x="80" y="160" width="10" height="10" fill="#926896"/>
  <rect x="90" y="160" width="10" height="10" fill="#a579ae"/>
  <rect x="100" y="160" width="10" height="10" fill="#a678ad"/>
  <rect x="110" y="160" width="10" height="10" fill="#754b71"/>
  <rect x="120" y="160" width="10" height="10" fill="#6f496c"/>
  <rect x="130" y="160" width="10" height="10" fill="#6d4872"/>
  <rect x="140" y="160" width="10" height="10" fill="#6c4874"/>
  <rect x="150" y="160" width="10" height="10" fill="#8e6693"/>
  <rect x="160" y="160" width="10" height="10" fill="#926697"/>
  <rect x="170" y="160" width="10" height="10" fill="#b38fb3"/>
  <rect x="180" y="160" width="10" height="10" fill="#615b4a"/>
  <rect x="190" y="160" width="10" height="10" fill="#6f6955"/>
  <rect x="0" y="170" width="10" height="10" fill="#989983"/>
  <rect x="10" y="170" width="10" height="10" fill="#5a5c4e"/>
  <rect x="20" y="170" width="10" height="10" fill="#55564b"/>
  <rect x="30" y="170" width="10" height="10" fill="#8c6d94"/>
  <rect x="40" y="170" width="10" height="10" fill="#ac89b3"/>
  <rect x="50" y="170" width="10" height="10" fill="#ad88b4"/>
  <rect x="60" y="170" width="10" height="10" fill="#523358"/>
  <rect x="70" y="170" width="10" height="10" fill="#704c72"/>
  <rect x="80" y="170" width="10" height="10" fill="#926994"/>
  <rect x="90" y="170" width="10" height="10" fill="#936797"/>
  <rect x="100" y="170" width="10" height="10" fill="#a678ad"/>
  <rect x="110" y="170" width="10" height="10" fill="#a579ad"/>
  <rect x="120" y="170" width="10" height="10" fill="#a37aac"/>
  <rect x="130" y="170" width="10" height="10" fill="#926e94"/>
  <rect x="140" y="170" width="10" height="10" fill="#564b43"/>
  <rect x="150" y="170" width="10" height="10" fill="#715178"/>
  <rect x="160" y="170" width="10" height="10" fill="#8f6b93"/>
  <rect x="170" y="170" width="10" height="10" fill="#a986ad"/>
  <rect x="180" y="170" width="10" height="10" fill="#4d4636"/>
  <rect x="190" y="170" width="10" height="10" fill="#514a39"/>
  <rect x="0" y="180" width="10" height="10" fill="#646557"/>
  <rect x="10" y="180" width="10" height="10" fill="#56574b"/>
  <rect x="30" y="180" width="10" height="10" fill="#6c5776"/>
  <rect x="40" y="180" width="10" height="10" fill="#8e6b96"/>
  <rect x="50" y="180" width="10" height="10" fill="#694d74"/>
  <rect x="60" y="180" width="10" height="10" fill="#6b4c73"/>
  <rect x="70" y="180" width="10" height="10" fill="#6f4b72"/>
  <rect x="80" y="180" width="10" height="10" fill="#8f6a91"/>
  <rect x="90" y="180" width="10" height="10" fill="#906b93"/>
  <rect x="100" y="180" width="10" height="10" fill="#916b93"/>
  <rect x="110" y="180" width="10" height="10" fill="#8f6990"/>
  <rect x="120" y="180" width="10" height="10" fill="#714c74"/>
  <rect x="130" y="180" width="10" height="10" fill="#8f6c91"/>
  <rect x="140" y="180" width="10" height="10" fill="#50473c"/>
  <rect x="150" y="180" width="10" height="10" fill="#4c4439"/>
  <rect x="160" y="180" width="10" height="10" fill="#3d342b"/>
  <rect x="170" y="180" width="10" height="10" fill="#382e25"/>
  <rect x="180" y="180" width="10" height="10" fill="#392f26"/>
  <rect x="190" y="180" width="10" height="10" fill="#191718"/>
  <rect x="0" y="190" width="10" height="10" fill="#55574a"/>
  <rect x="10" y="190" width="10" height="10" fill="#32332c"/>
  <rect x="30" y="190" width="10" height="10" fill="#0f0605"/>
  <rect x="40" y="190" width="10" height="10" fill="#6b5574"/>
  <rect x="50" y="190" width="10" height="10" fill="#6f4d73"/>
  <rect x="60" y="190" width="10" height="10" fill="#8f6b8d"/>
  <rect x="70" y="190" width="10" height="10" fill="#8e6b90"/>
  <rect x="80" y="190" width="10" height="10" fill="#6f4d6e"/>
  <rect x="90" y="190" width="10" height="10" fill="#6f4d6b"/>
  <rect x="100" y="190" width="10" height="10" fill="#71506e"/>
  <rect x="110" y="190" width="10" height="10" fill="#6f4d6d"/>
  <rect x="120" y="190" width="10" height="10" fill="#6f4d72"/>
  <rect x="130" y="190" width="10" height="10" fill="#724f75"/>
  <rect x="140" y="190" width="10" height="10" fill="#725071"/>
  <rect x="150" y="190" width="10" height="10" fill="#494136"/>
  <rect x="160" y="190" width="10" height="10" fill="#3b3229"/>
  <rect x="170" y="190" width="10" height="10" fill="#2d231a"/>
  <rect x="180" y="190" width="10" height="10" fill="#120e15"/>
  <rect x="190" y="190" width="10" height="10" fill="#191719"/>
  <rect x="0" y="200" width="10" height="10" fill="#32342b"/>
  <rect x="30" y="200" width="10" height="10" fill="#120705"/>
  <rect x="40" y="200" width="10" height="10" fill="#8a6c8f"/>
  <rect x="50" y="200" width="10" height="10" fill="#f35309"/>
  <rect x="60" y="200" width="10" height="10" fill="#fa5308"/>
  <rect x="70" y="200" width="10" height="10" fill="#aa7593"/>
  <rect x="80" y="200" width="10" height="10" fill="#a887ab"/>
  <rect x="90" y="200" width="10" height="10" fill="#34332d"/>
  <rect x="100" y="200" width="10" height="10" fill="#342b2f"/>
  <rect x="110" y="200" width="10" height="10" fill="#6a4e68"/>
  <rect x="120" y="200" width="10" height="10" fill="#725076"/>
  <rect x="130" y="200" width="10" height="10" fill="#735079"/>
  <rect x="140" y="200" width="10" height="10" fill="#8b698e"/>
  <rect x="150" y="200" width="10" height="10" fill="#8d6a8f"/>
  <rect x="160" y="200" width="10" height="10" fill="#916c92"/>
  <rect x="170" y="200" width="10" height="10" fill="#241712"/>
  <rect x="180" y="200" width="10" height="10" fill="#1a110e"/>
  <rect x="190" y="200" width="10" height="10" fill="#2f3133"/>
  <rect x="20" y="210" width="10" height="10" fill="#100705"/>
  <rect x="30" y="210" width="10" height="10" fill="#140809"/>
  <rect x="40" y="210" width="10" height="10" fill="#d35016"/>
  <rect x="50" y="210" width="10" height="10" fill="#ef5811"/>
  <rect x="60" y="210" width="10" height="10" fill="#f85507"/>
  <rect x="70" y="210" width="10" height="10" fill="#fd722f"/>
  <rect x="80" y="210" width="10" height="10" fill="#ab718e"/>
  <rect x="90" y="210" width="10" height="10" fill="#163013"/>
  <rect x="100" y="210" width="10" height="10" fill="#03110a"/>
  <rect x="120" y="210" width="10" height="10" fill="#715276"/>
  <rect x="130" y="210" width="10" height="10" fill="#724e76"/>
  <rect x="140" y="210" width="10" height="10" fill="#90698e"/>
  <rect x="150" y="210" width="10" height="10" fill="#f1500d"/>
  <rect x="160" y="210" width="10" height="10" fill="#f55511"/>
  <rect x="170" y="210" width="10" height="10" fill="#a986a8"/>
  <rect x="180" y="210" width="10" height="10" fill="#180d07"/>
  <rect x="190" y="210" width="10" height="10" fill="#140f0f"/>
  <rect x="0" y="220" width="10" height="10" fill="#100706"/>
  <rect x="10" y="220" width="10" height="10" fill="#120807"/>
  <rect x="40" y="220" width="10" height="10" fill="#e9662a"/>
  <rect x="50" y="220" width="10" height="10" fill="#f36929"/>
  <rect x="60" y="220" width="10" height="10" fill="#fb732c"/>
  <rect x="70" y="220" width="10" height="10" fill="#fb7b38"/>
  <rect x="80" y="220" width="10" height="10" fill="#fb722e"/>
  <rect x="90" y="220" width="10" height="10" fill="#062519"/>
  <rect x="100" y="220" width="10" height="10" fill="#021710"/>
  <rect x="110" y="220" width="10" height="10" fill="#01100b"/>
  <rect x="120" y="220" width="10" height="10" fill="#705473"/>
  <rect x="130" y="220" width="10" height="10" fill="#b64a26"/>
  <rect x="140" y="220" width="10" height="10" fill="#ce4d17"/>
  <rect x="150" y="220" width="10" height="10" fill="#f56d30"/>
  <rect x="160" y="220" width="10" height="10" fill="#fa7334"/>
  <rect x="170" y="220" width="10" height="10" fill="#fc8748"/>
  <rect x="180" y="220" width="10" height="10" fill="#0f0502"/>
  <rect x="190" y="220" width="10" height="10" fill="#100b0a"/>
  <rect x="0" y="230" width="10" height="10" fill="#100705"/>
  <rect x="10" y="230" width="10" height="10" fill="#150907"/>
  <rect x="40" y="230" width="10" height="10" fill="#d36731"/>
  <rect x="50" y="230" width="10" height="10" fill="#ec6c2d"/>
  <rect x="60" y="230" width="10" height="10" fill="#f37231"/>
  <rect x="70" y="230" width="10" height="10" fill="#f37634"/>
  <rect x="80" y="230" width="10" height="10" fill="#0a3026"/>
  <rect x="90" y="230" width="10" height="10" fill="#02241a"/>
  <rect x="100" y="230" width="10" height="10" fill="#011a11"/>
  <rect x="110" y="230" width="10" height="10" fill="#011912"/>
  <rect x="120" y="230" width="10" height="10" fill="#6f6974"/>
  <rect x="130" y="230" width="10" height="10" fill="#b35225"/>
  <rect x="140" y="230" width="10" height="10" fill="#d26730"/>
  <rect x="150" y="230" width="10" height="10" fill="#ed7237"/>
  <rect x="160" y="230" width="10" height="10" fill="#fb884b"/>
  <rect x="170" y="230" width="10" height="10" fill="#360508"/>
  <rect x="180" y="230" width="10" height="10" fill="#250202"/>
  <rect x="190" y="230" width="10" height="10" fill="#473730"/>
  <rect x="0" y="240" width="10" height="10" fill="#150a06"/>
  <rect x="10" y="240" width="10" height="10" fill="#150a07"/>
  <rect x="50" y="240" width="10" height="10" fill="#03231a"/>
  <rect x="60" y="240" width="10" height="10" fill="#03251b"/>
  <rect x="70" y="240" width="10" height="10" fill="#083024"/>
  <rect x="80" y="240" width="10" height="10" fill="#083226"/>
  <rect x="90" y="240" width="10" height="10" fill="#01251a"/>
  <rect x="100" y="240" width="10" height="10" fill="#022419"/>
  <rect x="110" y="240" width="10" height="10" fill="#02241a"/>
  <rect x="120" y="240" width="10" height="10" fill="#01251b"/>
  <rect x="130" y="240" width="10" height="10" fill="#033529"/>
  <rect x="140" y="240" width="10" height="10" fill="#0f4737"/>
  <rect x="150" y="240" width="10" height="10" fill="#540f0f"/>
  <rect x="160" y="240" width="10" height="10" fill="#56070a"/>
  <rect x="170" y="240" width="10" height="10" fill="#360406"/>
  <rect x="180" y="240" width="10" height="10" fill="#2b0907"/>
  <rect x="190" y="240" width="10" height="10" fill="#261510"/>
  <rect x="0" y="250" width="10" height="10" fill="#170a07"/>
  <rect x="10" y="250" width="10" height="10" fill="#160a07"/>
  <rect x="20" y="250" width="10" height="10" fill="#120805"/>
  <rect x="40" y="250" width="10" height="10" fill="#032319"/>
  <rect x="50" y="250" width="10" height="10" fill="#03261b"/>
  <rect x="60" y="250" width="10" height="10" fill="#043023"/>
  <rect x="70" y="250" width="10" height="10" fill="#00251b"/>
  <rect x="80" y="250" width="10" height="10" fill="#01261b"/>
  <rect x="90" y="250" width="10" height="10" fill="#01251a"/>
  <rect x="100" y="250" width="10" height="10" fill="#012519"/>
  <rect x="110" y="250" width="10" height="10" fill="#012519"/>
  <rect x="120" y="250" width="10" height="10" fill="#033325"/>
  <rect x="130" y="250" width="10" height="10" fill="#023528"/>
  <rect x="140" y="250" width="10" height="10" fill="#01392c"/>
  <rect x="150" y="250" width="10" height="10" fill="#510a0c"/>
  <rect x="160" y="250" width="10" height="10" fill="#56070b"/>
  <rect x="170" y="250" width="10" height="10" fill="#51080b"/>
  <rect x="180" y="250" width="10" height="10" fill="#681617"/>
  <rect x="190" y="250" width="10" height="10" fill="#2c140d"/>
</svg>