<svg xmlns="http://www.w3.org/2000/svg" viewBox="0 0 32 40" width="64" height="80">
  <rect width="100%" height="100%" fill="#1a1a2e"/>
  <rect x="0" y="0" width="4" height="4" fill="#b36659"/>
  <rect x="4" y="0" width="4" height="4" fill="#8cb0b2"/>
  <rect x="8" y="0" width="4" height="4" fill="#94302b"/>
  <rect x="12" y="0" width="4" height="4" fill="#93322a"/>
  <rect x="16" y="0" width="4" height="4" fill="#ae5448"/>
  <rect x="20" y="0" width="4" height="4" fill="#35362e"/>
  <rect x="24" y="0" width="4" height="4" fill="#b55246"/>
  <rect x="28" y="0" width="4" height="4" fill="#c46755"/>
  <rect x="0" y="4" width="4" height="4" fill="#902f2b"/>
  <rect x="4" y="4" width="4" height="4" fill="#131410"/>
  <rect x="12" y="4" width="4" height="4" fill="#0f0f0c"/>
  <rect x="16" y="4" width="4" height="4" fill="#171713"/>
  <rect x="20" y="4" width="4" height="4" fill="#2b2c27"/>
  <rect x="24" y="4" width="4" height="4" fill="#2c2d25"/>
  <rect x="28" y="4" width="4" height="4" fill="#33332a"/>
  <rect x="0" y="8" width="4" height="4" fill="#100f0a"/>
  <rect x="8" y="8" width="4" height="4" fill="#8f7396"/>
  <rect x="12" y="8" width="4" height="4" fill="#aa87b3"/>
  <rect x="16" y="8" width="4" height="4" fill="#b28fb5"/>
  <rect x="20" y="8" width="4" height="4" fill="#b38fb3"/>
  <rect x="24" y="8" width="4" height="4" fill="#2f2f27"/>
  <rect x="28" y="8" width="4" height="4" fill="#33342a"/>
  <rect x="0" y="12" width="4" height="4" fill="#0f0f0a"/>
  <rect x="8" y="12" width="4" height="4" fill="#886d91"/>
  <rect x="12" y="12" width="4" height="4" fill="#ab86b2"/>
  <rect x="16" y="12" width="4" height="4" fill="#af88b2"/>
  <rect x="20" y="12" width="4" height="4" fill="#b38cb3"/>
  <rect x="24" y="12" width="4" height="4" fill="#b2a9a5"/>
  <rect x="28" y="12" width="4" height="4" fill="#33332a"/>
  <rect x="0" y="16" width="4" height="4" fill="#0f0f0b"/>
  <rect x="8" y="16" width="4" height="4" fill="#6e5273"/>
  <rect x="12" y="16" width="4" height="4" fill="#ee6a33"/>
  <rect x="16" y="16" width="4" height="4" fill="#f06c36"/>
  <rect x="20" y="16" width="4" height="4" fill="#b088ae"/>
  <rect x="24" y="16" width="4" height="4" fill="#161712"/>
  <rect x="28" y="16" width="4" height="4" fill="#c84e44"/>
  <rect x="0" y="20" width="4" height="4" fill="#787367"/>
  <rect x="4" y="20" width="4" height="4" fill="#6a645a"/>
  <rect x="8" y="20" width="4" height="4" fill="#8d6a95"/>
  <rect x="12" y="20" width="4" height="4" fill="#906b94"/>
  <rect x="16" y="20" width="4" height="4" fill="#b186b0"/>
  <rect x="20" y="20" width="4" height="4" fill="#774c74"/>
  <rect x="24" y="20" width="4" height="4" fill="#ada997"/>
  <rect x="28" y="20" width="4" height="4" fill="#c9c7b0"/>
  <rect x="0" y="24" width="4" height="4" fill="#656657"/>
  <rect x="4" y="24" width="4" height="4" fill="#8c6d94"/>
  <rect x="8" y="24" width="4" height="4" fill="#af89b5"/>
  <rect x="12" y="24" width="4" height="4" fill="#916895"/>
  <rect x="16" y="24" width="4" height="4" fill="#a579ad"/>
  <rect x="20" y="24" width="4" height="4" fill="#6d4972"/>
  <rect x="24" y="24" width="4" height="4" fill="#8f6a93"/>
  <rect x="28" y="24" width="4" height="4" fill="#4e4737"/>
  <rect x="4" y="28" width="4" height="4" fill="#0f0706"/>
  <rect x="8" y="28" width="4" height="4" fill="#6f4e74"/>
  <rect x="12" y="28" width="4" height="4" fill="#704e6f"/>
  <rect x="16" y="28" width="4" height="4" fill="#704e6e"/>
  <rect x="20" y="28" width="4" height="4" fill="#735076"/>
  <rect x="24" y="28" width="4" height="4" fill="#3a3128"/>
  <rect x="28" y="28" width="4" height="4" fill="#171315"/>
  <rect x="8" y="32" width="4" height="4" fill="#f7702d"/>
  <rect x="12" y="32" width="4" height="4" fill="#0c2917"/>
  <rect x="16" y="32" width="4" height="4" fill="#02130d"/>
  <rect x="20" y="32" width="4" height="4" fill="#745178"/>
  <rect x="24" y="32" width="4" height="4" fill="#f67134"/>
  <rect x="28" y="32" width="4" height="4" fill="#140a08"/>
  <rect x="0" y="36" width="4" height="4" fill="#150907"/>
  <rect x="8" y="36" width="4" height="4" fill="#02261b"/>
  <rect x="12" y="36" width="4" height="4" fill="#01251a"/>
  <rect x="16" y="36" width="4" height="4" fill="#01241a"/>
  <rect x="20" y="36" width="4" height="4" fill="#023629"/>
  <rect x="24" y="36" width="4" height="4" fill="#54080b"/>
  <rect x="28" y="36" width="4" height="4" fill="#2c0b09"/>
</svg>