<svg xmlns="http://www.w3.org/2000/svg" viewBox="0 0 256 340" width="256" height="340">
  <style>
    .bg { fill: #1a1a2e; }
    .fg { fill: #ffd700; }
  </style>
  <rect class="bg" width="100%" height="100%"/>
  <g class="fg">
    <rect x="8" y="0" width="4" height="4" />
<rect x="60" y="0" width="40" height="4" />
<rect x="104" y="0" width="20" height="4" />
<rect x="136" y="0" width="12" height="4" />
<rect x="156" y="0" width="36" height="4" />
<rect x="200" y="0" width="40" height="4" />
<rect x="248" y="0" width="8" height="4" />
<rect x="8" y="4" width="4" height="4" />
<rect x="60" y="4" width="40" height="4" />
<rect x="104" y="4" width="20" height="4" />
<rect x="132" y="4" width="16" height="4" />
<rect x="152" y="4" width="40" height="4" />
<rect x="200" y="4" width="36" height="4" />
<rect x="248" y="4" width="8" height="4" />
<rect x="8" y="8" width="8" height="4" />
<rect x="60" y="8" width="40" height="4" />
<rect x="104" y="8" width="20" height="4" />
<rect x="132" y="8" width="60" height="4" />
<rect x="196" y="8" width="40" height="4" />
<rect x="248" y="8" width="8" height="4" />
<rect x="8" y="12" width="8" height="4" />
<rect x="60" y="12" width="40" height="4" />
<rect x="104" y="12" width="88" height="4" />
<rect x="196" y="12" width="40" height="4" />
<rect x="244" y="12" width="12" height="4" />
<rect x="8" y="16" width="8" height="4" />
<rect x="60" y="16" width="40" height="4" />
<rect x="104" y="16" width="88" height="4" />
<rect x="196" y="16" width="40" height="4" />
<rect x="244" y="16" width="12" height="4" />
<rect x="8" y="20" width="8" height="4" />
<rect x="60" y="20" width="40" height="4" />
<rect x="104" y="20" width="88" height="4" />
<rect x="196" y="20" width="40" height="4" />
<rect x="244" y="20" width="12" height="4" />
<rect x="8" y="24" width="8" height="4" />
<rect x="52" y="24" width="4" height="4" />
<rect x="60" y="24" width="128" height="4" />
<rect x="196" y="24" width="40" height="4" />
<rect x="244" y="24" width="8" height="4" />
<rect x="12" y="28" width="4" height="4" />
<rect x="48" y="28" width="140" height="4" />
<rect x="196" y="28" width="40" height="4" />
<rect x="12" y="32" width="4" height="4" />
<rect x="44" y="32" width="144" height="4" />
<rect x="196" y="32" width="44" height="4" />
<rect x="12" y="36" width="4" height="4" />
<rect x="44" y="36" width="144" height="4" />
<rect x="196" y="36" width="44" height="4" />
<rect x="12" y="40" width="8" height="4" />
<rect x="24" y="40" width="8" height="4" />
<rect x="36" y="40" width="152" height="4" />
<rect x="192" y="40" width="52" height="4" />
<rect x="12" y="44" width="176" height="4" />
<rect x="192" y="44" width="64" height="4" />
<rect x="0" y="48" width="256" height="4" />
<rect x="0" y="52" width="256" height="4" />
<rect x="0" y="56" width="108" height="4" />
<rect x="116" y="56" width="16" height="4" />
<rect x="140" y="56" width="100" height="4" />
<rect x="248" y="56" width="8" height="4" />
<rect x="0" y="60" width="32" height="4" />
<rect x="40" y="60" width="64" height="4" />
<rect x="148" y="60" width="96" height="4" />
<rect x="248" y="60" width="8" height="4" />
<rect x="0" y="64" width="96" height="4" />
<rect x="160" y="64" width="96" height="4" />
<rect x="0" y="68" width="88" height="4" />
<rect x="168" y="68" width="4" height="4" />
<rect x="184" y="68" width="72" height="4" />
<rect x="0" y="72" width="64" height="4" />
<rect x="72" y="72" width="8" height="4" />
<rect x="188" y="72" width="68" height="4" />
<rect x="0" y="76" width="64" height="4" />
<rect x="192" y="76" width="64" height="4" />
<rect x="0" y="80" width="64" height="4" />
<rect x="196" y="80" width="60" height="4" />
<rect x="0" y="84" width="56" height="4" />
<rect x="60" y="84" width="4" height="4" />
<rect x="200" y="84" width="56" height="4" />
<rect x="0" y="88" width="56" height="4" />
<rect x="204" y="88" width="52" height="4" />
<rect x="0" y="92" width="56" height="4" />
<rect x="204" y="92" width="52" height="4" />
<rect x="0" y="96" width="60" height="4" />
<rect x="76" y="96" width="4" height="4" />
<rect x="208" y="96" width="48" height="4" />
<rect x="0" y="100" width="60" height="4" />
<rect x="72" y="100" width="8" height="4" />
<rect x="188" y="100" width="4" height="4" />
<rect x="208" y="100" width="12" height="4" />
<rect x="224" y="100" width="32" height="4" />
<rect x="0" y="104" width="60" height="4" />
<rect x="72" y="104" width="20" height="4" />
<rect x="188" y="104" width="8" height="4" />
<rect x="208" y="104" width="8" height="4" />
<rect x="224" y="104" width="32" height="4" />
<rect x="0" y="108" width="60" height="4" />
<rect x="72" y="108" width="4" height="4" />
<rect x="80" y="108" width="16" height="4" />
<rect x="144" y="108" width="4" height="4" />
<rect x="208" y="108" width="8" height="4" />
<rect x="224" y="108" width="32" height="4" />
<rect x="0" y="112" width="60" height="4" />
<rect x="64" y="112" width="12" height="4" />
<rect x="84" y="112" width="16" height="4" />
<rect x="140" y="112" width="12" height="4" />
<rect x="188" y="112" width="4" height="4" />
<rect x="208" y="112" width="4" height="4" />
<rect x="224" y="112" width="32" height="4" />
<rect x="0" y="116" width="60" height="4" />
<rect x="64" y="116" width="12" height="4" />
<rect x="80" y="116" width="20" height="4" />
<rect x="140" y="116" width="16" height="4" />
<rect x="188" y="116" width="4" height="4" />
<rect x="208" y="116" width="4" height="4" />
<rect x="224" y="116" width="32" height="4" />
<rect x="0" y="120" width="60" height="4" />
<rect x="64" y="120" width="12" height="4" />
<rect x="84" y="120" width="16" height="4" />
<rect x="140" y="120" width="16" height="4" />
<rect x="208" y="120" width="4" height="4" />
<rect x="224" y="120" width="32" height="4" />
<rect x="0" y="124" width="76" height="4" />
<rect x="88" y="124" width="24" height="4" />
<rect x="144" y="124" width="8" height="4" />
<rect x="208" y="124" width="4" height="4" />
<rect x="220" y="124" width="36" height="4" />
<rect x="0" y="128" width="80" height="4" />
<rect x="92" y="128" width="20" height="4" />
<rect x="124" y="128" width="8" height="4" />
<rect x="204" y="128" width="8" height="4" />
<rect x="220" y="128" width="36" height="4" />
<rect x="0" y="132" width="80" height="4" />
<rect x="88" y="132" width="24" height="4" />
<rect x="200" y="132" width="12" height="4" />
<rect x="216" y="132" width="40" height="4" />
<rect x="0" y="136" width="80" height="4" />
<rect x="84" y="136" width="28" height="4" />
<rect x="184" y="136" width="64" height="4" />
<rect x="0" y="140" width="112" height="4" />
<rect x="184" y="140" width="72" height="4" />
<rect x="0" y="144" width="108" height="4" />
<rect x="112" y="144" width="4" height="4" />
<rect x="180" y="144" width="28" height="4" />
<rect x="216" y="144" width="40" height="4" />
<rect x="0" y="148" width="108" height="4" />
<rect x="112" y="148" width="4" height="4" />
<rect x="180" y="148" width="32" height="4" />
<rect x="216" y="148" width="40" height="4" />
<rect x="0" y="152" width="108" height="4" />
<rect x="112" y="152" width="4" height="4" />
<rect x="152" y="152" width="8" height="4" />
<rect x="176" y="152" width="80" height="4" />
<rect x="20" y="156" width="88" height="4" />
<rect x="156" y="156" width="4" height="4" />
<rect x="176" y="156" width="80" height="4" />
<rect x="36" y="160" width="72" height="4" />
<rect x="184" y="160" width="4" height="4" />
<rect x="32" y="164" width="80" height="4" />
<rect x="24" y="168" width="88" height="4" />
<rect x="132" y="168" width="8" height="4" />
<rect x="144" y="168" width="4" height="4" />
<rect x="24" y="172" width="88" height="4" />
<rect x="128" y="172" width="8" height="4" />
<rect x="156" y="172" width="8" height="4" />
<rect x="168" y="172" width="4" height="4" />
<rect x="20" y="176" width="96" height="4" />
<rect x="124" y="176" width="4" height="4" />
<rect x="156" y="176" width="4" height="4" />
<rect x="164" y="176" width="12" height="4" />
<rect x="20" y="180" width="48" height="4" />
<rect x="76" y="180" width="44" height="4" />
<rect x="152" y="180" width="32" height="4" />
<rect x="12" y="184" width="52" height="4" />
<rect x="80" y="184" width="24" height="4" />
<rect x="148" y="184" width="36" height="4" />
<rect x="8" y="188" width="52" height="4" />
<rect x="88" y="188" width="16" height="4" />
<rect x="148" y="188" width="32" height="4" />
<rect x="8" y="192" width="44" height="4" />
<rect x="92" y="192" width="8" height="4" />
<rect x="148" y="192" width="32" height="4" />
<rect x="184" y="192" width="12" height="4" />
<rect x="0" y="196" width="48" height="4" />
<rect x="92" y="196" width="8" height="4" />
<rect x="116" y="196" width="4" height="4" />
<rect x="148" y="196" width="44" height="4" />
<rect x="0" y="200" width="20" height="4" />
<rect x="36" y="200" width="12" height="4" />
<rect x="92" y="200" width="8" height="4" />
<rect x="116" y="200" width="4" height="4" />
<rect x="148" y="200" width="48" height="4" />
<rect x="0" y="204" width="4" height="4" />
<rect x="36" y="204" width="8" height="4" />
<rect x="92" y="204" width="8" height="4" />
<rect x="148" y="204" width="48" height="4" />
<rect x="36" y="208" width="8" height="4" />
<rect x="88" y="208" width="12" height="4" />
<rect x="144" y="208" width="52" height="4" />
<rect x="204" y="208" width="4" height="4" />
<rect x="0" y="212" width="4" height="4" />
<rect x="20" y="212" width="24" height="4" />
<rect x="88" y="212" width="12" height="4" />
<rect x="144" y="212" width="60" height="4" />
<rect x="224" y="212" width="20" height="4" />
<rect x="0" y="216" width="44" height="4" />
<rect x="84" y="216" width="16" height="4" />
<rect x="144" y="216" width="20" height="4" />
<rect x="172" y="216" width="32" height="4" />
<rect x="228" y="216" width="28" height="4" />
<rect x="12" y="220" width="32" height="4" />
<rect x="84" y="220" width="24" height="4" />
<rect x="152" y="220" width="16" height="4" />
<rect x="172" y="220" width="36" height="4" />
<rect x="228" y="220" width="28" height="4" />
<rect x="8" y="224" width="32" height="4" />
<rect x="80" y="224" width="28" height="4" />
<rect x="172" y="224" width="40" height="4" />
<rect x="228" y="224" width="28" height="4" />
<rect x="4" y="228" width="40" height="4" />
<rect x="52" y="228" width="4" height="4" />
<rect x="80" y="228" width="24" height="4" />
<rect x="108" y="228" width="4" height="4" />
<rect x="176" y="228" width="36" height="4" />
<rect x="224" y="228" width="32" height="4" />
<rect x="0" y="232" width="44" height="4" />
<rect x="76" y="232" width="36" height="4" />
<rect x="168" y="232" width="36" height="4" />
<rect x="216" y="232" width="40" height="4" />
<rect x="0" y="236" width="48" height="4" />
<rect x="52" y="236" width="4" height="4" />
<rect x="72" y="236" width="36" height="4" />
<rect x="164" y="236" width="4" height="4" />
<rect x="180" y="236" width="76" height="4" />
<rect x="0" y="240" width="56" height="4" />
<rect x="68" y="240" width="16" height="4" />
<rect x="96" y="240" width="16" height="4" />
<rect x="148" y="240" width="20" height="4" />
<rect x="184" y="240" width="72" height="4" />
<rect x="0" y="244" width="52" height="4" />
<rect x="64" y="244" width="28" height="4" />
<rect x="96" y="244" width="36" height="4" />
<rect x="136" y="244" width="40" height="4" />
<rect x="188" y="244" width="68" height="4" />
<rect x="0" y="248" width="48" height="4" />
<rect x="56" y="248" width="200" height="4" />
<rect x="0" y="252" width="76" height="4" />
<rect x="80" y="252" width="16" height="4" />
<rect x="100" y="252" width="156" height="4" />
<rect x="0" y="256" width="60" height="4" />
<rect x="64" y="256" width="8" height="4" />
<rect x="104" y="256" width="152" height="4" />
<rect x="0" y="260" width="56" height="4" />
<rect x="64" y="260" width="4" height="4" />
<rect x="108" y="260" width="100" height="4" />
<rect x="212" y="260" width="44" height="4" />
<rect x="0" y="264" width="56" height="4" />
<rect x="64" y="264" width="4" height="4" />
<rect x="76" y="264" width="8" height="4" />
<rect x="108" y="264" width="80" height="4" />
<rect x="192" y="264" width="8" height="4" />
<rect x="216" y="264" width="40" height="4" />
<rect x="0" y="268" width="48" height="4" />
<rect x="52" y="268" width="16" height="4" />
<rect x="76" y="268" width="8" height="4" />
<rect x="112" y="268" width="76" height="4" />
<rect x="196" y="268" width="4" height="4" />
<rect x="224" y="268" width="32" height="4" />
<rect x="0" y="272" width="56" height="4" />
<rect x="60" y="272" width="8" height="4" />
<rect x="80" y="272" width="4" height="4" />
<rect x="112" y="272" width="76" height="4" />
<rect x="212" y="272" width="4" height="4" />
<rect x="224" y="272" width="32" height="4" />
<rect x="0" y="276" width="56" height="4" />
<rect x="112" y="276" width="72" height="4" />
<rect x="192" y="276" width="4" height="4" />
<rect x="228" y="276" width="28" height="4" />
<rect x="0" y="280" width="52" height="4" />
<rect x="116" y="280" width="64" height="4" />
<rect x="196" y="280" width="8" height="4" />
<rect x="228" y="280" width="28" height="4" />
<rect x="0" y="284" width="52" height="4" />
<rect x="116" y="284" width="56" height="4" />
<rect x="180" y="284" width="8" height="4" />
<rect x="196" y="284" width="4" height="4" />
<rect x="228" y="284" width="28" height="4" />
<rect x="0" y="288" width="44" height="4" />
<rect x="48" y="288" width="8" height="4" />
<rect x="112" y="288" width="56" height="4" />
<rect x="176" y="288" width="12" height="4" />
<rect x="224" y="288" width="32" height="4" />
<rect x="0" y="292" width="44" height="4" />
<rect x="52" y="292" width="4" height="4" />
<rect x="112" y="292" width="72" height="4" />
<rect x="224" y="292" width="32" height="4" />
<rect x="0" y="296" width="48" height="4" />
<rect x="112" y="296" width="72" height="4" />
<rect x="224" y="296" width="32" height="4" />
<rect x="0" y="300" width="52" height="4" />
<rect x="108" y="300" width="48" height="4" />
<rect x="160" y="300" width="24" height="4" />
<rect x="220" y="300" width="36" height="4" />
<rect x="0" y="304" width="52" height="4" />
<rect x="100" y="304" width="56" height="4" />
<rect x="160" y="304" width="20" height="4" />
<rect x="220" y="304" width="36" height="4" />
<rect x="0" y="308" width="52" height="4" />
<rect x="92" y="308" width="92" height="4" />
<rect x="216" y="308" width="40" height="4" />
<rect x="0" y="312" width="56" height="4" />
<rect x="80" y="312" width="124" height="4" />
<rect x="208" y="312" width="48" height="4" />
<rect x="0" y="316" width="256" height="4" />
<rect x="0" y="320" width="256" height="4" />
<rect x="0" y="324" width="256" height="4" />
<rect x="0" y="328" width="256" height="4" />
<rect x="0" y="332" width="256" height="4" />
<rect x="0" y="336" width="256" height="4" />
  </g>
</svg>